#!OML:ASF H:\Terrain\Patient Classification 1\Terrain2\Thursday\justin.ASF
:FULLY-SPECIFIED
:DEGREES
3505
root 0.587318 20.2691 -12.2902 730.318 -65.1146 -368.409
lowerback 7.01446 3.16719 7.76516
upperback 3.5575 4.57966 3.4263
thorax 0.105369 2.30352 -1.08594
lowerneck -10.1474 2.28422 -7.2553
upperneck 42.3463 3.96426 0.456911
head 16.9901 0.13111 2.04555
rclavicle -5.86415e-014 -1.74931e-014
rhumerus -21.6954 1.22878 -83.7896
rradius 34.2495
rwrist -9.33424
rhand -22.8173 13.2009
rfingers 7.12502
rthumb 3.61956 -16.7481
lclavicle -5.86415e-014 -1.74931e-014
lhumerus -40.0685 5.73803 83.0649
lradius 36.1303
lwrist 3.90398
lhand -17.2914 20.3791
lfingers 7.12502
lthumb 8.95417 50.1691
rfemur -12.9092 -18.1245 30.1841
rtibia 37.6624
rfoot -24.9948 -4.26299
rtoes 20.0614
lfemur -21.4456 9.79666 -13.6649
ltibia 43.7238
lfoot -24.6968 4.46687
ltoes -8.02352
3506
root 0.571863 20.2648 -12.3012 728.718 -64.4841 -366.709
lowerback 7.01783 3.2204 6.96483
upperback 3.56464 4.61087 3.29779
thorax 0.0544307 2.31334 -0.783702
lowerneck -10.3124 2.29835 -7.1822
upperneck 42.4244 3.96462 0.570853
head 17.0719 0.16032 2.09159
rclavicle 2.96189e-014 -3.18055e-014
rhumerus -21.8315 1.24231 -83.92
rradius 34.2734
rwrist -9.43347
rhand -22.505 13.0849
rfingers 7.12502
rthumb 3.92113 -16.8587
lclavicle 2.96189e-014 -3.18055e-014
lhumerus -39.91 5.73018 83.0029
lradius 36.1881
lwrist 3.89115
lhand -17.3054 20.4704
lfingers 7.12502
lthumb 8.94066 50.2609
rfemur -12.9253 -18.4114 29.5839
rtibia 37.6519
rfoot -24.82 -4.50259
rtoes 20.7714
lfemur -21.6112 10.3597 -14.4234
ltibia 43.736
lfoot -24.6391 5.15666
ltoes -8.59214
3507
root 0.558319 20.2528 -12.3039 729.098 -63.6953 -367.086
lowerback 6.90948 3.40114 7.35136
upperback 3.50576 4.86867 3.23322
thorax 0.110176 2.44865 -1.06909
lowerneck -10.3937 2.12507 -6.94864
upperneck 42.4473 3.59683 0.760663
head 17.1202 0.0809768 2.08276
rclavicle -4.21423e-014 6.36111e-015
rhumerus -22.1315 0.626119 -84.0378
rradius 34.336
rwrist -9.42102
rhand -22.1749 13.3706
rfingers 7.12502
rthumb 4.2399 -16.567
lclavicle -4.21423e-014 6.36111e-015
lhumerus -39.6878 5.11784 83.0018
lradius 36.2797
lwrist 3.6968
lhand -17.5895 20.2659
lfingers 7.12502
lthumb 8.66649 50.068
rfemur -13.0341 -19.0061 29.9049
rtibia 37.7043
rfoot -24.6238 -4.47471
rtoes 20.6863
lfemur -21.8807 10.8634 -14.1928
ltibia 43.7188
lfoot -24.695 5.14051
ltoes -6.93005
3508
root 0.544335 20.2431 -12.299 730.257 -62.8032 -368.361
lowerback 6.75689 3.53425 8.23485
upperback 3.43644 5.08252 3.28658
thorax 0.216626 2.56598 -1.49613
lowerneck -10.4288 1.94841 -6.6408
upperneck 42.4801 3.25374 0.799099
head 17.1696 0.00189474 1.99416
rclavicle 1.83677e-013 -2.06736e-014
rhumerus -22.446 0.135727 -84.1881
rradius 34.3403
rwrist -9.33567
rhand -22.0301 13.2682
rfingers 7.12502
rthumb 4.3797 -16.6665
lclavicle 1.83677e-013 -2.06736e-014
lhumerus -39.5024 4.68633 82.9232
lradius 36.5002
lwrist 3.61261
lhand -17.5292 20.0837
lfingers 7.12502
lthumb 8.72469 49.8834
rfemur -13.0884 -19.4515 30.6571
rtibia 37.7827
rfoot -24.3315 -4.60062
rtoes 20.2578
lfemur -21.9308 11.6957 -13.5419
ltibia 43.5867
lfoot -24.4857 4.75903
ltoes -4.77945
3509
root 0.530197 20.2544 -12.297 729.456 -61.9902 -367.587
lowerback 6.77335 3.4778 7.9372
upperback 3.41163 4.99801 3.31907
thorax 0.143441 2.51846 -1.30009
lowerneck -10.5052 1.93254 -6.6439
upperneck 42.5131 3.31928 0.653212
head 17.2126 0.0120669 1.94281
rclavicle 2.54444e-014 2.06736e-014
rhumerus -22.677 0.589189 -84.3081
rradius 34.3746
rwrist -9.4616
rhand -21.8687 12.599
rfingers 7.12502
rthumb 4.53555 -17.3325
lclavicle 2.54444e-014 2.06736e-014
lhumerus -39.4308 4.95144 82.848
lradius 36.7106
lwrist 3.70149
lhand -17.0961 20.0935
lfingers 7.12502
lthumb 9.14262 49.8753
rfemur -12.9701 -19.604 30.3448
rtibia 37.8247
rfoot -24.1269 -4.82356
rtoes 20.5153
lfemur -21.825 12.2756 -13.9255
ltibia 43.4756
lfoot -24.09 4.55867
ltoes -0.925411
3510
root 0.517172 20.2599 -12.291 728.46 -61.1391 -366.676
lowerback 6.89657 3.4124 7.50665
upperback 3.39808 4.90341 3.41461
thorax 0.00550249 2.46181 -0.973178
lowerneck -10.5241 1.87897 -6.88598
upperneck 42.5201 3.33593 0.634846
head 17.2201 -0.0167247 1.98287
rclavicle 5.56597e-015 -9.54166e-015
rhumerus -22.9945 1.13731 -84.2787
rradius 34.5971
rwrist -9.84995
rhand -22.2554 12.6349
rfingers 7.12502
rthumb 4.16217 -17.3042
lclavicle 5.56597e-015 -9.54166e-015
lhumerus -39.5518 5.20155 82.9653
lradius 37.0472
lwrist 3.71254
lhand -16.8444 20.1678
lfingers 7.12502
lthumb 9.38551 49.9389
rfemur -12.7917 -19.7957 29.9182
rtibia 37.9092
rfoot -24.1602 -5.08418
rtoes 20.7252
lfemur -22.0905 11.9481 -14.2706
ltibia 43.2063
lfoot -23.7608 4.09022
ltoes 8.53827
